<?xml version="1.0" encoding="utf-8"?>
<!-- Generator: Adobe Illustrator 25.0.1, SVG Export Plug-In . SVG Version: 6.00 Build 0)  -->
<svg version="1.1" id="Layer_1" xmlns="http://www.w3.org/2000/svg" xmlns:xlink="http://www.w3.org/1999/xlink" x="0px" y="0px"
	 viewBox="0 0 50 50" style="enable-background:new 0 0 50 50;" xml:space="preserve">
<style type="text/css">
	.st0{fill:#EE5E5E;}
</style>
<path class="st0" d="M23.3,49.3c0.5,0.5,1.1,0.7,1.7,0.7s1.3-0.2,1.7-0.7l13.2-13.2c8.2-8.2,8.2-21.6,0-29.9C36,2.2,30.6,0,25,0
	S14,2.2,10.1,6.2c-8.2,8.2-8.2,21.6,0,29.9L23.3,49.3z M19.2,15.3c1.6-1.6,3.6-2.4,5.8-2.4s4.3,0.9,5.8,2.4c1.6,1.6,2.4,3.6,2.4,5.8
	s-0.9,4.3-2.4,5.8c-1.6,1.6-3.6,2.4-5.8,2.4s-4.3-0.9-5.8-2.4c-1.6-1.6-2.4-3.6-2.4-5.8C16.8,18.9,17.6,16.9,19.2,15.3z"/>
</svg>
