<?xml version="1.0" encoding="utf-8"?>
<!-- Generator: Adobe Illustrator 25.0.1, SVG Export Plug-In . SVG Version: 6.00 Build 0)  -->
<svg version="1.1" id="Layer_1" xmlns="http://www.w3.org/2000/svg" xmlns:xlink="http://www.w3.org/1999/xlink" x="0px" y="0px"
	 viewBox="0 0 50 50" style="enable-background:new 0 0 50 50;" xml:space="preserve">
<style type="text/css">
	.st0{fill:#FFFFFF;}
</style>
<g>
	<g>
		<g>
			<path class="st0" d="M3.4,40.5c-0.1,0-0.2,0-0.2,0c0,0,0,0,0,0h0c-0.1,0-0.2-0.1-0.3-0.1c-0.1-0.1-0.2-0.1-0.3-0.2
				c-0.1-0.1-0.2-0.2-0.2-0.3c-0.1-0.1-0.1-0.2-0.1-0.3c0,0,0,0,0,0c0-0.1,0-0.1,0-0.2V26.8c0-0.3,0.1-0.6,0.3-0.8L28.2,0.3
				c0.5-0.5,1.2-0.5,1.7,0l12.5,12.5c0.2,0.2,0.3,0.5,0.3,0.8c0,0.3-0.1,0.6-0.3,0.8L16.7,40.1c-0.2,0.2-0.5,0.3-0.8,0.3H3.4
				C3.4,40.5,3.4,40.5,3.4,40.5z M4.6,38.1h10.8l24.4-24.4L29,2.8L4.6,27.3V38.1z"/>
		</g>
		<path class="st0" d="M35.1,20.1c-0.3,0-0.6-0.1-0.8-0.3L22.7,8.1c-0.5-0.5-0.5-1.2,0-1.7c0.5-0.5,1.2-0.5,1.7,0l11.6,11.6
			c0.5,0.5,0.5,1.2,0,1.7C35.7,20,35.4,20.1,35.1,20.1z"/>
	</g>
	<path class="st0" d="M46.6,50H3.4c-0.7,0-1.2-0.5-1.2-1.2s0.5-1.2,1.2-1.2h43.2c0.7,0,1.2,0.5,1.2,1.2S47.3,50,46.6,50z"/>
</g>
</svg>
