<?xml version="1.0" encoding="utf-8"?>
<!-- Generator: Adobe Illustrator 25.0.1, SVG Export Plug-In . SVG Version: 6.00 Build 0)  -->
<svg version="1.1" id="Isolation_Mode" xmlns="http://www.w3.org/2000/svg" xmlns:xlink="http://www.w3.org/1999/xlink" x="0px"
	 y="0px" viewBox="0 0 50 50" style="enable-background:new 0 0 50 50;" xml:space="preserve">
<style type="text/css">
	.st0{fill:#333333;}
</style>
<g>
	<path class="st0" d="M47.3,21.4h-7.5c0.3-0.5,0.4-1.1,0.4-1.6c0-1-0.4-1.9-1-2.4c0.5-0.5,0.8-1.4,0.8-2.4c0-1.8-1.4-3.3-3-3.3l-8,0
		c0.2-1.1,0.5-2.7,0.3-4.6c-0.3-3.5-2.1-6-4.4-6.1c-2-0.1-2.8,0.3-2.9,0.4c-0.3,0.2-0.4,0.5-0.3,0.8c0.3,1.5,0.7,4.3,0.4,5.2
		c-0.7,2-2.3,3.7-3.7,5.2c-1.2,1.2-2.1,2.3-2.4,3.3h-5.6c-0.4,0-0.7,0.3-0.7,0.7v4.7h-7c-0.9,0-1.7,0.8-1.7,1.7v16.5
		c0,0.9,0.8,1.7,1.7,1.7h13.7c0.3,0,0.6,0.1,0.9,0.4l7.2,7.2c0.1,0.1,0.3,0.2,0.5,0.2c0.2,0,0.4-0.1,0.5-0.2l7.2-7.2
		c0.2-0.2,0.5-0.4,0.9-0.4h13.7c0.9,0,1.7-0.8,1.7-1.7V23.1C49,22.1,48.2,21.4,47.3,21.4z M17.3,16.7c0-0.7,1.1-1.9,2.2-3
		c1.4-1.6,3.2-3.5,4-5.7c0.4-1.2,0-4-0.3-5.3c0.3-0.1,0.9-0.1,1.6-0.1c1.5,0.1,2.7,2,3,4.7c0.2,2.3-0.3,4.3-0.5,5
		c-0.1,0.2,0,0.5,0.1,0.6c0.1,0.2,0.4,0.3,0.6,0.3H37c0.8,0,1.6,0.8,1.6,1.8c0,1.4-0.8,1.8-0.9,1.8c-0.4,0-0.7,0.3-0.7,0.7
		c0,0.4,0.3,0.7,0.7,0.7c0.5,0,1.1,0.5,1.1,1.5c0,0.7-0.3,1.3-0.9,1.7c-0.2,0.1-0.3,0.3-0.3,0.5c0,0.2,0.1,0.4,0.2,0.6
		c0.4,0.4,0.6,0.9,0.6,1.4c0,1-0.7,1.8-1.7,2c-0.2,0-0.4,0.2-0.5,0.4c-0.1,0.2-0.1,0.5,0,0.7c0.2,0.3,0.3,0.7,0.3,1
		c0,1.1-0.8,2-2,2.1c0,0-0.1,0-0.1,0H17.3V16.7z M11.2,17.4h4.7v12.7h-4.7V17.4z M47.5,39.5c0,0.1-0.1,0.2-0.2,0.2H33.6
		c-0.7,0-1.4,0.3-1.9,0.8L25,47.2l-6.7-6.7c-0.5-0.5-1.2-0.8-1.9-0.8H2.7c-0.1,0-0.2-0.1-0.2-0.2V23.1c0-0.1,0.1-0.2,0.2-0.2h7v8
		c0,0.4,0.3,0.7,0.7,0.7h24c0.1,0,0.2,0,0.2,0c1.9-0.2,3.3-1.7,3.3-3.5c0-0.3,0-0.6-0.1-0.9c1.2-0.6,2.1-1.8,2.1-3.2
		c0-0.4-0.1-0.7-0.2-1.1h7.6c0.1,0,0.2,0.1,0.2,0.2V39.5z"/>
	<path class="st0" d="M13.5,27.2c-0.4,0-0.7,0.3-0.7,0.7c0,0.4,0.3,0.7,0.7,0.7c0.4,0,0.7-0.3,0.7-0.7
		C14.3,27.5,13.9,27.2,13.5,27.2z"/>
</g>
</svg>
