<?xml version="1.0" encoding="utf-8"?>
<!-- Generator: Adobe Illustrator 25.0.1, SVG Export Plug-In . SVG Version: 6.00 Build 0)  -->
<svg version="1.1" id="Layer_1" xmlns="http://www.w3.org/2000/svg" xmlns:xlink="http://www.w3.org/1999/xlink" x="0px" y="0px"
	 viewBox="0 0 50 50" style="enable-background:new 0 0 50 50;" xml:space="preserve">
<style type="text/css">
	.st0{fill:#333333;}
</style>
<path class="st0" d="M48.2,0H1.8C0.8,0,0,0.8,0,1.8v46.5c0,1,0.8,1.8,1.8,1.8h46.5c1,0,1.8-0.8,1.8-1.8V1.8C50,0.8,49.2,0,48.2,0z
	 M31.6,21.2c-1.5-0.2-3.4-0.5-5.4-0.9c0.1-0.7,0.1-1.3,0-2c2-0.4,3.9-0.7,5.4-0.9c0.4,0,0.7-0.4,0.7-0.8s-0.4-0.7-0.8-0.7
	C30,16.1,28,16.3,26,16.8c-0.1-0.4-0.2-0.8-0.4-1.2c0-0.1-0.1-0.1-0.1-0.2c3.1-2.3,6.4-3.4,8.2-3.8c0.2,0,0.3,0,0.5,0.1
	c0.1,0,0.2,0.1,0.2,0.3c0.4,1.6,1,4.6,1,7.4s-0.6,5.8-1,7.4c0,0.1-0.1,0.2-0.2,0.3C34,27,33.9,27,33.7,27c-1.8-0.4-5.1-1.5-8.2-3.8
	c0-0.1,0.1-0.1,0.1-0.2c0.1-0.4,0.3-0.8,0.4-1.2c2,0.4,4,0.7,5.5,0.9h0.1c0.4,0,0.7-0.3,0.8-0.7C32.3,21.6,32,21.2,31.6,21.2z
	 M19,23.3c-0.5,0-1-0.3-1.2-0.8c-0.7-1.9-0.7-4.3,0-6.2c0.2-0.5,0.7-0.8,1.2-0.8h3.9c0.5,0,1,0.3,1.2,0.8c0.7,1.9,0.7,4.3,0,6.2
	c-0.2,0.5-0.7,0.8-1.2,0.8H19z M20,24.8c-0.3,1.7-1.1,5.8-2.1,11c-1.5-1-4.4-2.7-7.9-2.6c1-2.2,3.6-6.7,7.5-8.8
	c0.4,0.3,0.9,0.4,1.4,0.4C18.9,24.8,20,24.8,20,24.8z M22.9,24.8c0.5,0,1-0.1,1.4-0.4c4,2.1,6.5,6.7,7.5,8.8
	c-3.5-0.1-6.4,1.5-7.9,2.6c-1-5.1-1.8-9.2-2.1-11H22.9z M17.2,1.5h7.6v12.6c-0.1,0.1-0.2,0.1-0.3,0.2c-0.5-0.3-1-0.5-1.6-0.5H19
	c-0.6,0-1.1,0.2-1.5,0.5c-0.1-0.1-0.2-0.1-0.3-0.2V1.5z M10.4,17.4c1.5,0.2,3.4,0.4,5.4,0.9c-0.1,0.7-0.1,1.3,0,2
	c-2,0.4-3.9,0.7-5.4,0.9c-0.4,0-0.7,0.4-0.7,0.8s0.4,0.7,0.8,0.7h0.1c1.5-0.2,3.5-0.5,5.5-0.9c0.1,0.4,0.2,0.8,0.4,1.2
	c0,0.1,0.1,0.1,0.1,0.2c-3.1,2.3-6.4,3.4-8.2,3.8c-0.2,0-0.3,0-0.5-0.1c-0.1,0-0.2-0.1-0.2-0.3c-0.4-1.6-1-4.6-1-7.4s0.6-5.8,1-7.4
	c0-0.1,0.1-0.2,0.2-0.3c0.1-0.1,0.2-0.1,0.3-0.1s0.1,0,0.2,0c1.8,0.4,5.1,1.5,8.2,3.8c0,0.1-0.1,0.1-0.1,0.2
	c-0.1,0.4-0.3,0.8-0.4,1.2c-2-0.4-4-0.7-5.5-0.9c-0.4,0-0.8,0.3-0.8,0.7C9.6,17,9.9,17.4,10.4,17.4z M1.5,1.8c0-0.1,0.1-0.3,0.3-0.3
	h13.9v11.6c-2.8-1.7-5.5-2.5-7.1-2.9c-0.6-0.1-1.1,0-1.6,0.3c-0.4,0.3-0.8,0.7-0.9,1.2c-0.2,0.7-0.4,1.8-0.6,3h-4
	C1.5,14.7,1.5,1.8,1.5,1.8z M1.5,16.2h3.7c-0.1,1-0.2,2.1-0.2,3.2c0,1.5,0.2,3,0.4,4.4H1.5V16.2z M15.7,48.5H1.8
	c-0.1,0-0.3-0.1-0.3-0.3v-23h4.2C5.8,25.9,6,26.5,6.1,27s0.4,0.9,0.9,1.2c0.3,0.2,0.7,0.3,1.1,0.3c0.2,0,0.3,0,0.5-0.1
	c0.8-0.2,2-0.5,3.3-1.1c-2.4,3-3.6,6.2-3.7,6.4c-0.1,0.3,0,0.5,0.1,0.7c0.2,0.2,0.4,0.3,0.7,0.3c2.6-0.5,5,0.4,6.7,1.3
	C15.7,36,15.7,48.5,15.7,48.5z M24.7,48.5h-7.6V37.1c0.5,0.3,0.7,0.6,0.7,0.6c0.1,0.1,0.3,0.2,0.5,0.2c0.1,0,0.2,0,0.2,0
	c0.3-0.1,0.5-0.3,0.5-0.6c0.7-3.7,1.3-6.9,1.8-9.3c0.4,2.3,1.1,5.6,1.8,9.3c0.1,0.3,0.2,0.5,0.5,0.6c0.1,0,0.2,0,0.2,0
	c0.2,0,0.4-0.1,0.5-0.2c0,0,0.3-0.2,0.7-0.6v11.4H24.7z M48.5,48.2c0,0.1-0.1,0.3-0.3,0.3h-22V36.2c1.7-0.9,4.1-1.8,6.7-1.3
	c0.3,0,0.5-0.1,0.7-0.3s0.2-0.5,0.1-0.7c-0.1-0.2-1.3-3.4-3.7-6.4c1.3,0.5,2.4,0.9,3.3,1.1c0.2,0,0.3,0.1,0.5,0.1
	c0.4,0,0.8-0.1,1.1-0.3c0.4-0.3,0.8-0.7,0.9-1.2c0.1-0.5,0.2-1.1,0.4-1.8h12.3V48.2z M48.5,23.7h-12c0.2-1.4,0.4-2.9,0.4-4.4
	c0-1-0.1-2.1-0.2-3.2h11.8V23.7z M48.5,14.6h-12c-0.2-1.2-0.4-2.3-0.6-3c-0.1-0.5-0.4-0.9-0.9-1.2s-1.1-0.4-1.6-0.3
	c-1.6,0.4-4.3,1.2-7.1,2.9V1.5h22c0.1,0,0.3,0.1,0.3,0.3v12.8H48.5z"/>
</svg>
