<?xml version="1.0" encoding="utf-8"?>
<!-- Generator: Adobe Illustrator 25.0.1, SVG Export Plug-In . SVG Version: 6.00 Build 0)  -->
<svg version="1.1" id="Isolation_Mode" xmlns="http://www.w3.org/2000/svg" xmlns:xlink="http://www.w3.org/1999/xlink" x="0px"
	 y="0px" viewBox="0 0 50 50" style="enable-background:new 0 0 50 50;" xml:space="preserve">
<style type="text/css">
	.st0{fill:#333333;}
</style>
<g>
	<path class="st0" d="M48.3,1c-0.4,0-0.7,0.3-0.7,0.7c0,4.9-4,9-9,9l-27.2,0C5.7,10.7,1,15.4,1,21.1c0,5.5,4.3,10,9.7,10.4v9
		c0,4.7,3.8,8.5,8.5,8.5c0.4,0,0.7-0.3,0.7-0.7V31.5l18.7,0c4.9,0,9,4,9,9c0,0.4,0.3,0.7,0.7,0.7c0.4,0,0.7-0.3,0.7-0.7V1.7
		C49,1.3,48.7,1,48.3,1z M2.5,21.1c0-4.7,3.6-8.6,8.2-8.9v17.9C6.1,29.7,2.5,25.8,2.5,21.1z M18.5,47.5c-3.5-0.4-6.3-3.4-6.3-7v-9
		h6.3V47.5z M26.2,30.1l-14.1,0V12.2h14.1V30.1z M47.5,35.2c-1.8-3.1-5.2-5.1-9-5.1H27.7V12.2h10.9c3.8,0,7.2-2.1,9-5.1V35.2z"/>
	<path class="st0" d="M15.3,21.8h7.8c0.4,0,0.7-0.3,0.7-0.7c0-0.4-0.3-0.7-0.7-0.7h-7.8c-0.4,0-0.7,0.3-0.7,0.7
		C14.6,21.5,14.9,21.8,15.3,21.8z"/>
	<path class="st0" d="M15.3,17h7.8c0.4,0,0.7-0.3,0.7-0.7c0-0.4-0.3-0.7-0.7-0.7h-7.8c-0.4,0-0.7,0.3-0.7,0.7
		C14.6,16.7,14.9,17,15.3,17z"/>
	<path class="st0" d="M15.3,26.7h7.8c0.4,0,0.7-0.3,0.7-0.7c0-0.4-0.3-0.7-0.7-0.7h-7.8c-0.4,0-0.7,0.3-0.7,0.7
		C14.6,26.4,14.9,26.7,15.3,26.7z"/>
</g>
</svg>
