<?xml version="1.0" encoding="utf-8"?>
<!-- Generator: Adobe Illustrator 25.0.1, SVG Export Plug-In . SVG Version: 6.00 Build 0)  -->
<svg version="1.1" id="Layer_1" xmlns="http://www.w3.org/2000/svg" xmlns:xlink="http://www.w3.org/1999/xlink" x="0px" y="0px"
	 viewBox="0 0 50 50" style="enable-background:new 0 0 50 50;" xml:space="preserve">
<style type="text/css">
	.st0{fill:#333333;}
</style>
<path class="st0" d="M43.2,0H6.8C3.1,0,0,3.1,0,6.8v36.4C0,46.9,3.1,50,6.8,50h36.4c3.8,0,6.8-3.1,6.8-6.8V6.8C50,3.1,46.9,0,43.2,0
	z M43.2,1.5c2.9,0,5.3,2.4,5.3,5.3v7.3H34.8V1.5H43.2z M1.5,6.8c0-2.9,2.4-5.3,5.3-5.3h8.6c0.4,2.7,2.7,4.9,5.6,4.9
	c2.6,0,4.6,2.1,4.6,4.6c0,1.2-0.3,2.4-0.9,3.3c-0.9-1.2-2.3-1.9-3.8-1.9c-2.6,0-4.8,2.2-4.8,4.8c0,0.3,0,0.5,0.1,0.8
	c-3.6,1.3-6.2,4.7-6.2,8.8c0,4.8-3.7,8.7-8.4,9.1V6.8H1.5z M24.1,17.2c0,1.8-1.5,3.3-3.3,3.3s-3.3-1.5-3.3-3.3s1.5-3.3,3.3-3.3
	C22.7,13.9,24.1,15.4,24.1,17.2z M15.1,48.5H6.8c-1.6,0-3.1-0.8-4.1-1.9L15,41.9v6.6H15.1z M33.3,48.5H16.6v-7.2L33.3,35V48.5z
	 M33.3,33.3l-31.4,12c-0.3-0.6-0.4-1.3-0.4-2.1v-5.8c5.5-0.4,9.9-5,9.9-10.6c0-3.4,2.2-6.3,5.2-7.3c0.7,1.3,2,2.3,3.5,2.5v8.8
	c0,0.4,0.3,0.8,0.8,0.8s0.8-0.3,0.8-0.8V22c2.3-0.4,4-2.3,4-4.7c0-0.5-0.1-0.9-0.2-1.3c1.1-1.4,1.7-3,1.7-4.9c0-3.4-2.8-6.1-6.1-6.1
	c-2,0-3.7-1.4-4-3.4h16.3L33.3,33.3L33.3,33.3z M48.5,43.2c0,2.9-2.4,5.3-5.3,5.3h-8.4V34.4l13.7-5.2C48.5,29.2,48.5,43.2,48.5,43.2
	z M34.8,32.7v-17h13.7v11.9L34.8,32.7z"/>
</svg>
