<?xml version="1.0" encoding="utf-8"?>
<!-- Generator: Adobe Illustrator 25.0.1, SVG Export Plug-In . SVG Version: 6.00 Build 0)  -->
<svg version="1.1" id="Layer_1" xmlns="http://www.w3.org/2000/svg" xmlns:xlink="http://www.w3.org/1999/xlink" x="0px" y="0px"
	 viewBox="0 0 191.7 133.3" style="enable-background:new 0 0 191.7 133.3;" xml:space="preserve">
<style type="text/css">
	.st0{clip-path:url(#SVGID_2_);fill:#F96C48;}
	.st1{clip-path:url(#SVGID_2_);fill:#F99948;}
	.st2{clip-path:url(#SVGID_2_);fill:#F9B248;}
	.st3{clip-path:url(#SVGID_2_);fill:#69AF75;}
	.st4{clip-path:url(#SVGID_2_);fill:#6FB7ED;}
</style>
<g>
	<g>
		<defs>
			<path id="SVGID_1_" d="M-11.9,48.6l98.3,42.7l19.3,6.8l97.9,38.6l-2.1-70.2l-19.7-43L151.4,1.4l-42.7-17c0,0-35.9-1.5-49.6,1.9
				C45.5-10.2,13.8,4.5,13.8,4.5s-22.2,39.4-23,40.6"/>
		</defs>
		<clipPath id="SVGID_2_">
			<use xlink:href="#SVGID_1_"  style="overflow:visible;"/>
		</clipPath>
		<path class="st0" d="M16,65.9c8.9-17.2,22.2-33.2,40.8-40.2c16.9-6.4,35.6-6.6,53-2c36,9.5,66.4,57.9,61.5,97.4
			c-0.6,4.8,8.2,10,12.5,9.9c5.4-0.1,6.3-22.2,6.4-27.1c1.9-74.1-85.4-121.6-146.8-92c-19,9.2-33.5,26.4-43,44.8
			C-4.8,67.1,10.7,76.2,16,65.9L16,65.9z"/>
		<path class="st1" d="M29.8,70.3c4.8-13,16.9-21.8,29.1-27.4c14.5-6.7,30.1-8.5,45.5-4.1c29.4,8.4,51.5,48.7,51.3,79.6
			c-0.1,11.6,17,11.4,18-0.2c5-58.6-28.9-87.7-66.7-97.4c-35.7-9.2-81.2,8.8-94.5,44.8C8.4,76.5,25.8,81.1,29.8,70.3L29.8,70.3z"/>
		<path class="st2" d="M40.7,81.9c13.7-20.2,35.1-37.5,60.9-29.8c11.4,3.4,21.3,11.2,28.4,20.7c8.2,11,11.7,22.5,11.9,36.2
			c0.2,11.5,15.7,23.3,17.9,11.9c3.8-20.4-5-44.7-15.4-58.6c-9.6-12.8-22.6-22.9-38.1-27.5c-33.8-10.1-62.8,11.4-81,38.2
			C18.7,82.4,34.3,91.4,40.7,81.9L40.7,81.9z"/>
		<path class="st3" d="M53,87.7c4.7-7.5,11.8-12.7,19.2-17.3c8.2-5.1,15.7-8.2,25.2-4.2c8.4,3.5,18.3,10.1,23.7,17.5
			c5.2,7.2,7.1,16.4,8.8,25c2.3,11.3,17.1,16.2,17.8,4.7c0.8-13.4-6.1-32.7-13.7-42.2c-8.2-10.2-21.5-19-33.9-23.1
			c-12.5-4.2-24.4-0.7-35.3,5.8C54.1,60.3,44.2,68,37.5,78.7C31.3,88.5,46.9,97.5,53,87.7L53,87.7z"/>
		<path class="st4" d="M67.9,95.5C74.6,87,84.3,78.2,96.2,81c10.5,2.5,20.5,15.3,19.2,26.1c-0.6,4.8,4.7,9,9.1,8.9
			c5.4-0.1,8.3-4.2,8.9-9.1c2.2-18.2-14.2-37.3-30.8-42.8c-18.3-6-36.4,4.7-47.4,18.6c-3,3.8-3.7,8.9,0,12.7
			C58.3,98.6,64.9,99.3,67.9,95.5L67.9,95.5z"/>
	</g>
</g>
</svg>
