<?xml version="1.0" encoding="utf-8"?>
<!-- Generator: Adobe Illustrator 25.0.1, SVG Export Plug-In . SVG Version: 6.00 Build 0)  -->
<svg version="1.1" id="Layer_1" xmlns="http://www.w3.org/2000/svg" xmlns:xlink="http://www.w3.org/1999/xlink" x="0px" y="0px"
	 viewBox="0 0 43 42" style="enable-background:new 0 0 43 42;" xml:space="preserve">
<style type="text/css">
	.st0{fill:#F7E3A8;}
</style>
<g>
	<g>
		<path class="st0" d="M30.6,27.6c4.3-1.7,9.8-4.1,12.4-6.1c-4.1-1.3-8.7-2.5-13.4-3.6c-0.7-5.3-1.4-10.7-2.4-16
			c-0.1-0.8-0.4-1.8-1.4-2c-0.7-0.1-1.3,0.3-1.7,0.8c-2.8,4-5.3,8.3-7.4,12.7c-0.2,0.5-0.5,0.8-0.8,1.3c0,0,0,0,0,0c0,0,0,0,0,0l0,0
			c-5.1-1-10-1.8-14.6-2.8c-1-0.2-1.7,0.9-1.1,1.7c3,4.3,6.3,8.3,9.9,12c-2.5,4.4-5,8.9-6.4,13.1c-0.2,0.7-0.1,1.5,0.5,2
			c0.7,0.6,1.5,0.3,2.1,0c3.4-1.4,8-4.5,12.3-7.2c3.4,2.9,7,5.5,10.7,7.9c0.5,0.3,1.1,0.6,1.7,0.2c0.4-0.3,0.6-0.8,0.6-1.3
			C31.4,36.2,31,31.9,30.6,27.6z"/>
	</g>
</g>
</svg>
