<?xml version="1.0" encoding="utf-8"?>
<!-- Generator: Adobe Illustrator 25.0.1, SVG Export Plug-In . SVG Version: 6.00 Build 0)  -->
<svg version="1.1" id="Isolation_Mode" xmlns="http://www.w3.org/2000/svg" xmlns:xlink="http://www.w3.org/1999/xlink" x="0px"
	 y="0px" viewBox="0 0 195 180" style="enable-background:new 0 0 195 180;" xml:space="preserve">
<style type="text/css">
	.st0{opacity:0.3;}
	.st1{fill:#F0CC6E;}
	.st2{fill:#CEE0A1;}
	.st3{fill:#FDDADF;}
</style>
<g class="st0">
	<path class="st1" d="M60.3,39.5c3.8,2,8.8,2.2,12-0.6c3.2-2.8,3.6-8.1,1.4-11.8s-6.3-6-10.5-6.7c-3.2-0.6-6.8-0.3-9.5,1.4
		C44.7,27.5,54.3,36.3,60.3,39.5z"/>
	<path class="st1" d="M100,58.4c4,1.8,9.1,1.8,12.4-1.2c1.9-1.8,3-4.4,3-7s-1-5.2-2.7-7.2c-3.3-4.1-9.4-5.8-14.4-4
		c-3.6,1.3-8.6,5.8-8.4,10.1C90.3,53,96.7,56.9,100,58.4z"/>
	<path class="st1" d="M96.9,19.5c3.4-0.2,6.9-1.9,8.8-4.7s2.3-6.9,0.4-9.8c-1.6-2.5-4.5-3.9-7.4-4.6c-3.3-0.8-6.8-0.7-9.9,0.6
		c-3.1,1.3-5.7,4.1-6.3,7.4C80.9,16.3,90.6,19.9,96.9,19.5z"/>
	<path class="st1" d="M63.5,76.8c1.1,2.8,3,5.4,5.7,6.7c2.7,1.2,6.4,0.7,8.2-1.6c2-2.5,1.6-6.1,0.8-9.2c-0.7-2.8-1.5-5.6-3.2-7.9
		c-1.7-2.3-4.5-3.9-7.4-3.7C59.8,61.9,61.7,72,63.5,76.8z"/>
	<path class="st1" d="M110.4,104c2.4,0.8,5.2,1.1,7.4-0.3c1.9-1.2,2.9-3.4,3-5.6c0.1-2.2-0.6-4.4-1.6-6.3c-1.6-3.2-4.1-6-7.4-7.5
		c-3.3-1.5-7.3-1.4-10.3,0.7C92.1,91.8,103.6,101.8,110.4,104z"/>
	<path class="st1" d="M144.1,77c3.6-1,6.8-4.1,7-7.8c0.2-2.7-1.2-5.3-3.2-7.1s-4.6-2.8-7.2-3.3c-2.8-0.6-5.9-0.6-8.4,0.8
		c-2.9,1.5-4.7,4.9-4.4,8.2C128.5,75.7,137.4,78.9,144.1,77z"/>
	<path class="st1" d="M138.9,34.5c2.9-0.4,5.7-2.3,6.5-5.1c0.6-1.9,0.2-4-0.7-5.8s-2.3-3.2-3.9-4.5c-2.4-2-5.3-3.6-8.4-4.1
		c-5.3-0.8-14.2,4.2-10.4,10.5c1.3,2.1,4.6,3.8,6.5,5.3C131.6,33.1,135,35,138.9,34.5z"/>
	<path class="st1" d="M154.8,110.4c3.5-0.1,7-1.5,9.6-3.9c2-1.9,3.4-4.6,3-7.3c-0.6-3.5-4.2-5.7-7.7-6.5c-3.9-0.8-8.2-0.4-11.4,2.1
		C139.5,101.2,145.6,110.5,154.8,110.4z"/>
	<path class="st1" d="M193.9,74.5c1.4-3.3,1.4-7,0.2-10.4c-0.9-2.6-2.9-5-5.5-5.6c-3.5-0.8-6.9,1.6-9,4.5c-2.3,3.2-3.6,7.4-2.7,11.3
		C179.5,84.8,190.4,83,193.9,74.5z"/>
	<path class="st1" d="M170.5,55.6c2.4-1.2,3.6-4.1,3.5-6.8c-0.1-2.7-1.3-5.2-2.5-7.6c-0.9-1.9-2-3.7-3.5-5.2c-1.5-1.4-3.6-2.4-5.7-2
		c-5.5,1-6.6,8.8-4.3,12.9C160.3,51.1,164.7,58.4,170.5,55.6z"/>
</g>
<g>
	<path class="st2" d="M16.5,123.3L16.5,123.3L16.5,123.3c-1.7,8.3-8.2,14.8-16.5,16.5h0h0c8.3,1.7,14.8,8.2,16.5,16.5l0,0l0,0
		c1.7-8.3,8.2-14.8,16.5-16.5h0h0C24.7,138.1,18.2,131.6,16.5,123.3z"/>
	<circle class="st3" cx="20.8" cy="174.7" r="5.3"/>
	<circle class="st1" cx="46.5" cy="163.1" r="4.5"/>
</g>
</svg>
