<?xml version="1.0" encoding="utf-8"?>
<!-- Generator: Adobe Illustrator 25.0.1, SVG Export Plug-In . SVG Version: 6.00 Build 0)  -->
<svg version="1.1" id="Isolation_Mode" xmlns="http://www.w3.org/2000/svg" xmlns:xlink="http://www.w3.org/1999/xlink" x="0px"
	 y="0px" viewBox="0 0 73 98" style="enable-background:new 0 0 73 98;" xml:space="preserve">
<style type="text/css">
	.st0{fill:#FDDADF;}
</style>
<g>
	<path class="st0" d="M22.3,14.2c0.6,2.8,2.7,5.4,5.6,5.8c2.8,0.4,5.7-1.7,6.6-4.5s0.3-5.8-1.2-8.3c-1.1-1.9-2.8-3.6-4.9-4.2
		C21.5,1.1,21.2,9.8,22.3,14.2z"/>
	<path class="st0" d="M30.2,42.7c0.9,2.8,3.1,5.4,6.1,5.8c1.7,0.2,3.5-0.4,4.9-1.6s2.2-2.8,2.5-4.5c0.6-3.5-1.2-7.3-4.3-9
		c-2.2-1.3-6.7-1.8-8.8,0.2C28.6,35.3,29.5,40.3,30.2,42.7z"/>
	<path class="st0" d="M48.5,24c1.6,1.7,4,2.7,6.3,2.4c2.3-0.3,4.5-1.9,5.1-4.1c0.6-1.9,0-4-1-5.8c-1.1-2-2.6-3.8-4.7-4.7
		c-2-1-4.6-1.1-6.5,0C43,14.5,45.5,21,48.5,24z"/>
	<path class="st0" d="M4.8,32.3c-1,1.8-1.4,3.9-0.8,5.8c0.6,1.9,2.4,3.5,4.4,3.5c2.1-0.1,3.8-1.9,5-3.6c1.1-1.6,2.2-3.2,2.6-5.1
		c0.4-1.9,0-4-1.4-5.3C10.7,23.9,6.5,29.2,4.8,32.3z"/>
	<path class="st0" d="M11.7,68c0.7,1.6,1.8,3.1,3.4,3.6c1.4,0.4,3,0,4.2-0.9c1.2-0.9,1.9-2.2,2.5-3.6c0.9-2.2,1.2-4.8,0.5-7.1
		c-0.7-2.3-2.5-4.3-4.9-4.9C9.8,53.3,9.8,63.6,11.7,68z"/>
	<path class="st0" d="M40.1,73.1c2.1,1.4,5,1.6,7,0.1c1.4-1.1,2.2-2.9,2.2-4.7c0-1.8-0.6-3.5-1.5-5.1c-1-1.7-2.3-3.2-4.1-3.9
		c-2.1-0.8-4.5-0.2-6.1,1.3C33.9,64.7,36.2,70.6,40.1,73.1z"/>
	<path class="st0" d="M59.4,51.8c1.5,1.3,3.7,1.9,5.4,1.1c1.2-0.6,2.1-1.7,2.6-2.9c0.5-1.2,0.6-2.6,0.6-3.9c0-2.1-0.5-4.3-1.6-6
		c-1.9-3-8.4-5.4-9.9-0.6c-0.5,1.6,0.1,4,0.2,5.6C56.9,47.5,57.4,50.1,59.4,51.8z"/>
	<path class="st0" d="M27.9,93.2c1.6,1.8,3.8,2.9,6.2,3.1c1.8,0.2,3.8-0.3,5-1.7c1.5-1.9,1-4.7-0.1-6.8c-1.3-2.3-3.4-4.3-6.1-4.9
		C25.9,81.5,23.8,88.6,27.9,93.2z"/>
	<path class="st0" d="M62.6,77.1c1.7,0.7,3.6,0,4.9-1.2c1.3-1.2,2.1-2.9,2.7-4.6c0.5-1.3,1-2.6,1.1-4s-0.4-2.9-1.5-3.8
		C67,61.1,62.5,64,61.4,67C60.4,70,58.6,75.4,62.6,77.1z"/>
</g>
</svg>
